<?xml version="1.0" standalone="no"?>
<!DOCTYPE svg PUBLIC "-//W3C//DTD SVG 20010904//EN"
 "http://www.w3.org/TR/2001/REC-SVG-20010904/DTD/svg10.dtd">
<svg version="1.0" xmlns="http://www.w3.org/2000/svg"
 width="500.000000pt" height="500.000000pt" viewBox="0 0 500.000000 500.000000"
 preserveAspectRatio="xMidYMid meet">

<g transform="translate(0.000000,500.000000) scale(0.100000,-0.100000)"
fill="#000000" stroke="none">
<path d="M5 4988 c-3 -7 -4 -1131 -3 -2498 l3 -2485 2495 0 2495 0 0 2495 0
2495 -2493 3 c-1989 2 -2494 0 -2497 -10z m2398 -755 c-7 -2 -21 -2 -30 0 -10
3 -4 5 12 5 17 0 24 -2 18 -5z m225 0 c-10 -2 -26 -2 -35 0 -10 3 -2 5 17 5
19 0 27 -2 18 -5z m-341 -9 c-3 -3 -12 -4 -19 -1 -8 3 -5 6 6 6 11 1 17 -2 13
-5z m446 -1 c-7 -2 -19 -2 -25 0 -7 3 -2 5 12 5 14 0 19 -2 13 -5z m124 -19
c-3 -3 -12 -4 -19 -1 -8 3 -5 6 6 6 11 1 17 -2 13 -5z m-1457 -358 c0 -2 -8
-10 -17 -17 -16 -13 -17 -12 -4 4 13 16 21 21 21 13z m-90 -79 c0 -2 -19 -21
-42 -42 l-43 -40 40 43 c36 39 45 47 45 39z m2425 -37 c21 -22 37 -40 34 -40
-3 0 -23 18 -44 40 -21 22 -37 40 -34 40 3 0 23 -18 44 -40z m-1120 -20 c435
-42 799 -300 990 -702 131 -277 146 -622 40 -920 -120 -335 -398 -613 -733
-733 -266 -95 -585 -93 -840 5 -377 145 -655 459 -756 855 -41 163 -40 415 4
585 127 492 554 861 1050 909 123 12 125 12 245 1z m-1435 -84 c0 -2 -8 -10
-17 -17 -16 -13 -17 -12 -4 4 13 16 21 21 21 13z m2661 -13 c13 -16 12 -17 -3
-4 -17 13 -22 21 -14 21 2 0 10 -8 17 -17z m-3064 -895 c-3 -8 -6 -5 -6 6 -1
11 2 17 5 13 3 -3 4 -12 1 -19z m3450 0 c-3 -8 -6 -5 -6 6 -1 11 2 17 5 13 3
-3 4 -12 1 -19z m-3460 -130 c-2 -13 -4 -5 -4 17 -1 22 1 32 4 23 2 -10 2 -28
0 -40z m3470 5 c-3 -10 -5 -2 -5 17 0 19 2 27 5 18 2 -10 2 -26 0 -35z m-3470
-220 c-3 -10 -5 -2 -5 17 0 19 2 27 5 18 2 -10 2 -26 0 -35z m3470 0 c-3 -10
-5 -2 -5 17 0 19 2 27 5 18 2 -10 2 -26 0 -35z m-3460 -105 c-3 -7 -5 -2 -5
12 0 14 2 19 5 13 2 -7 2 -19 0 -25z m3450 0 c-3 -7 -5 -2 -5 12 0 14 2 19 5
13 2 -7 2 -19 0 -25z m-3056 -885 c13 -16 12 -17 -3 -4 -17 13 -22 21 -14 21
2 0 10 -8 17 -17z m2679 13 c0 -2 -8 -10 -17 -17 -16 -13 -17 -12 -4 4 13 16
21 21 21 13z m-2575 -126 c21 -22 37 -40 34 -40 -3 0 -23 18 -44 40 -21 22
-37 40 -34 40 3 0 23 -18 44 -40z m2495 37 c0 -2 -19 -21 -42 -42 l-43 -40 40
43 c36 39 45 47 45 39z m-2379 -144 c13 -16 12 -17 -3 -4 -17 13 -22 21 -14
21 2 0 10 -8 17 -17z m2239 13 c0 -2 -8 -10 -17 -17 -16 -13 -17 -12 -4 4 13
16 21 21 21 13z m-1343 -402 c-3 -3 -12 -4 -19 -1 -8 3 -5 6 6 6 11 1 17 -2
13 -5z m450 0 c-3 -3 -12 -4 -19 -1 -8 3 -5 6 6 6 11 1 17 -2 13 -5z m-329
-11 c-10 -2 -26 -2 -35 0 -10 3 -2 5 17 5 19 0 27 -2 18 -5z m220 0 c-10 -2
-26 -2 -35 0 -10 3 -2 5 17 5 19 0 27 -2 18 -5z"/>
<path d="M2305 3436 c-291 -150 -730 -403 -747 -430 -14 -21 -8 -45 20 -72 17
-16 23 -28 15 -31 -28 -10 -63 -46 -63 -63 0 -11 18 -32 44 -50 119 -81 209
-251 262 -498 43 -199 104 -328 233 -492 69 -87 252 -267 312 -307 l37 -24
103 52 c122 60 321 179 434 257 163 113 395 312 395 339 0 6 -7 19 -16 28 -15
14 -13 19 20 55 20 22 36 49 36 59 0 12 -32 44 -86 87 -47 37 -90 76 -95 86
-10 18 -39 25 -39 9 0 -11 97 -101 150 -138 22 -15 42 -33 44 -40 3 -6 -25
-41 -62 -77 -126 -122 -312 -261 -501 -376 -100 -60 -342 -190 -354 -190 -4 0
-40 28 -80 63 -39 35 -82 72 -95 83 -40 33 -187 206 -232 273 -65 98 -120 223
-147 340 -69 295 -116 396 -240 519 -46 45 -81 87 -78 92 8 12 230 146 430
257 269 151 471 253 499 253 68 0 169 -86 235 -198 47 -81 91 -203 121 -337
26 -115 46 -150 36 -65 -10 92 -64 270 -111 365 -57 116 -126 194 -207 234
-34 17 -68 31 -77 31 -9 0 -97 -42 -196 -94z"/>
<path d="M2875 3390 c-15 -22 -25 -44 -21 -48 9 -8 65 57 66 76 0 23 -17 12
-45 -28z"/>
<path d="M2945 3341 c-73 -30 -68 -27 -61 -40 4 -7 27 -1 63 15 64 28 66 29
62 42 -2 4 -31 -3 -64 -17z"/>
<path d="M2890 3251 c0 -9 57 -21 103 -21 40 0 33 16 -10 24 -54 8 -93 7 -93
-3z"/>
<path d="M3245 3160 c-11 -4 -29 -18 -41 -31 -42 -49 -204 -288 -204 -302 0
-8 -28 -55 -63 -103 -35 -49 -87 -132 -117 -184 -29 -52 -64 -105 -78 -118
-13 -12 -22 -28 -19 -35 3 -7 8 -19 11 -27 5 -11 -2 -19 -20 -25 -28 -10 -32
-21 -60 -156 -5 -24 -15 -29 -84 -49 -45 -13 -93 -34 -112 -50 -47 -39 -116
-170 -89 -170 5 0 26 31 47 70 24 46 48 77 70 90 32 20 139 56 199 67 17 3 37
12 46 19 8 8 35 24 60 37 36 19 45 29 47 55 3 27 6 31 21 22 22 -11 61 13 61
38 0 9 32 53 71 96 39 44 102 120 138 170 37 50 81 105 97 121 16 17 39 44 52
60 21 29 21 27 -3 -22 -29 -61 -31 -90 -9 -121 23 -33 68 -27 72 10 2 18 -4
31 -18 41 -27 18 -22 29 57 135 67 91 95 149 82 173 -5 10 -9 38 -9 63 0 50
-30 95 -81 121 -30 16 -92 19 -124 5z m131 -35 c35 -23 59 -76 48 -108 -15
-45 -208 -305 -228 -309 -11 -1 -20 -11 -22 -21 -3 -24 -124 -184 -206 -273
l-65 -71 -24 18 c-25 19 -49 25 -49 12 0 -5 14 -17 30 -28 29 -19 41 -55 19
-55 -6 0 -38 19 -70 43 -59 43 -77 77 -39 77 11 0 20 7 20 16 0 32 216 374
236 374 3 0 26 -16 51 -35 25 -19 50 -32 56 -28 6 4 -3 17 -23 32 -19 14 -44
35 -57 46 l-24 20 96 135 c121 169 136 184 187 177 21 -3 50 -13 64 -22z
m-580 -813 c17 -13 20 -25 17 -52 -4 -30 -12 -38 -49 -56 -39 -19 -42 -19 -33
-2 5 9 19 22 30 28 27 15 22 54 -8 58 -18 3 -24 -4 -33 -37 -6 -22 -16 -43
-22 -47 -8 -5 -9 0 -5 17 4 13 7 38 7 55 0 24 6 32 28 41 38 15 44 15 68 -5z"/>
<path d="M2195 2720 c-22 -42 -19 -79 12 -140 l26 -53 -31 -29 c-20 -17 -43
-28 -62 -28 -17 0 -30 -4 -30 -10 0 -13 56 -13 83 1 12 6 29 20 38 31 14 18
19 19 51 8 73 -27 111 6 138 119 l16 66 61 7 c66 7 133 31 133 47 0 14 -16 14
-43 -1 -12 -7 -51 -15 -87 -19 -76 -8 -94 -25 -105 -96 -14 -98 -63 -138 -113
-95 -20 16 -21 19 -6 72 15 59 11 105 -14 133 -23 26 -50 21 -67 -13z m65 -59
c0 -53 -9 -91 -20 -91 -12 0 -33 69 -32 103 2 76 52 65 52 -12z"/>
</g>
</svg>
