<svg xmlns="http://www.w3.org/2000/svg" width="480" height="480" viewBox="0 0 480 480">
<g>
<path d="M 105.28 282.38 C102.41,283.82 99.55,285.00 98.93,285.00 C96.86,285.00 83.57,271.25 80.10,265.53 C78.24,262.45 75.28,255.10 73.54,249.21 C69.85,236.75 67.85,232.60 63.66,228.68 C61.08,226.27 60.80,225.56 61.79,223.96 C62.44,222.93 62.68,221.27 62.33,220.29 C61.13,216.94 67.65,223.94 70.36,228.92 C71.79,231.54 74.05,237.79 75.40,242.81 C76.74,247.83 79.03,254.13 80.50,256.81 C83.43,262.21 93.46,273.77 98.02,277.01 L 100.94 279.09 L 109.22 274.32 C120.75,267.69 129.59,261.40 135.75,255.45 C138.64,252.67 141.00,250.95 141.00,251.63 C141.00,252.32 140.55,253.16 140.00,253.50 C139.45,253.84 139.00,255.18 139.00,256.47 C139.00,260.36 119.93,275.01 105.28,282.38 ZM 138.56 233.39 C139.35,236.52 137.42,237.66 135.97,234.93 C134.49,232.17 135.42,228.70 139.07,223.40 C142.59,218.28 143.60,217.53 144.35,219.46 C144.65,220.26 143.34,223.18 141.43,225.96 C138.91,229.62 138.13,231.66 138.56,233.39 ZM 113.02 253.43 C112.49,254.85 111.32,256.00 110.42,256.00 C109.34,256.00 108.99,255.46 109.39,254.42 C109.73,253.55 110.00,252.62 110.00,252.36 C110.00,252.10 110.45,252.16 111.00,252.50 C111.55,252.84 112.00,252.42 112.00,251.56 C112.00,250.70 112.45,250.00 113.00,250.00 C114.24,250.00 114.24,250.24 113.02,253.43 Z" fill="rgb(13,13,13)"/>
<path d="M 121.50 313.49 C115.47,315.10 97.67,316.28 93.00,315.37 C72.71,311.43 54.30,300.98 43.59,287.35 C38.61,281.00 31.97,267.99 29.31,259.35 C26.77,251.10 26.77,228.90 29.31,220.65 C34.02,205.36 43.47,190.61 53.76,182.48 C71.53,168.43 90.61,162.68 111.57,165.06 C123.61,166.43 138.74,172.18 146.85,178.46 C152.11,182.54 158.81,189.31 162.67,194.44 C188.46,228.74 181.12,276.07 145.96,302.24 C141.80,305.33 127.66,311.84 121.50,313.49 ZM 279.49 272.98 C267.72,278.63 257.09,277.45 246.18,269.28 L 242.85 266.79 L 240.67 268.84 C235.54,273.66 229.24,275.42 216.00,275.76 C204.47,276.05 203.20,275.90 199.60,273.79 C192.59,269.67 192.00,267.36 192.00,244.17 C192.00,221.57 192.50,219.25 198.29,214.91 C201.29,212.65 202.30,212.50 214.00,212.56 C221.62,212.59 228.06,213.14 230.50,213.95 C236.37,215.92 242.51,220.45 245.08,224.74 C246.33,226.81 247.48,228.67 247.64,228.89 C247.81,229.10 250.17,228.31 252.90,227.14 C258.93,224.55 270.59,224.24 277.00,226.50 C282.62,228.48 282.68,228.47 282.78,225.02 C282.97,218.33 290.30,212.00 297.86,212.00 C301.91,212.00 308.58,215.34 310.06,218.11 C311.17,220.19 311.22,220.18 314.34,217.17 C316.08,215.49 318.77,213.65 320.32,213.06 C329.58,209.57 339.99,215.74 340.00,224.75 C340.00,228.46 341.00,228.73 346.35,226.50 C351.53,224.33 363.78,224.54 370.01,226.91 C375.75,229.09 376.91,228.55 379.45,222.46 C381.05,218.63 387.15,215.00 391.99,215.00 C396.96,215.00 401.68,217.56 404.47,221.77 C406.31,224.55 408.22,226.05 410.99,226.88 C413.15,227.53 415.17,228.47 415.49,228.98 C415.80,229.48 417.67,228.94 419.65,227.78 C424.17,225.11 436.92,224.16 443.46,225.99 C448.56,227.42 455.32,232.79 457.63,237.24 C460.48,242.77 459.04,262.73 455.42,267.73 C454.31,269.25 450.82,271.80 447.66,273.40 C440.29,277.11 431.39,277.33 422.69,274.02 L 416.87 271.81 L 412.00 273.90 C402.30,278.08 390.20,275.99 383.49,268.99 L 380.69 266.07 L 377.15 269.18 C368.13,277.09 356.12,278.59 344.67,273.23 C338.95,270.55 337.96,270.35 336.88,271.65 C331.75,277.82 320.08,277.22 313.28,270.43 C311.64,268.79 310.00,268.56 310.00,269.96 C310.00,270.49 308.32,272.07 306.27,273.46 C300.38,277.47 292.92,276.86 287.49,271.93 C285.54,270.15 285.31,270.18 279.49,272.98 ZM 87.49 290.64 C114.76,299.48 145.23,282.79 153.47,254.50 C155.77,246.63 155.77,233.37 153.47,225.50 C145.18,197.05 114.66,180.74 86.50,189.71 C70.07,194.94 57.93,207.27 51.87,224.88 C49.30,232.36 49.30,247.64 51.87,255.12 C58.12,273.28 69.77,284.90 87.49,290.64 ZM 202.65 265.17 C204.04,266.70 205.87,267.00 213.90,266.99 C225.97,266.99 230.50,265.73 235.12,261.12 C239.28,256.96 240.99,251.97 240.99,244.00 C240.99,232.66 236.65,225.28 228.66,223.04 C222.28,221.26 204.77,221.14 202.67,222.87 C201.21,224.07 201.00,226.76 201.00,243.79 C201.00,260.58 201.23,263.60 202.65,265.17 ZM 293.20 265.80 C294.87,267.47 300.50,267.30 301.96,265.55 C302.62,264.75 303.46,259.25 303.83,253.32 L 304.50 242.55 L 313.00 254.52 C320.64,265.29 321.84,266.53 324.82,266.82 C330.88,267.40 331.00,266.94 331.00,244.08 C331.00,229.33 330.66,223.06 329.80,222.20 C328.33,220.73 324.53,220.65 321.93,222.04 C320.19,222.97 320.00,224.22 320.00,234.54 C320.00,240.84 319.66,245.99 319.25,245.97 C318.84,245.95 314.86,240.66 310.42,234.22 C301.78,221.69 299.20,219.68 294.54,221.80 L 292.00 222.96 L 292.00 243.78 C292.00,258.64 292.34,264.94 293.20,265.80 ZM 353.00 266.81 C365.42,268.99 374.57,262.98 375.62,251.94 C376.67,240.95 369.07,233.00 357.50,233.00 C351.47,233.00 344.59,236.16 341.56,240.33 C338.62,244.36 338.63,255.68 341.57,259.62 C344.71,263.84 348.06,265.94 353.00,266.81 ZM 261.22 266.88 C272.69,269.00 282.07,263.41 283.54,253.59 C285.46,240.78 277.03,232.09 263.83,233.28 C256.25,233.97 252.04,236.48 249.25,241.98 C246.53,247.36 246.42,252.13 248.91,257.60 C251.16,262.57 255.48,265.83 261.22,266.88 ZM 431.00 266.92 C438.77,268.36 448.11,264.89 448.80,260.31 C449.30,256.95 446.55,255.52 442.10,256.85 C436.69,258.47 431.96,258.28 429.83,256.35 C428.82,255.43 428.00,254.31 428.00,253.85 C428.00,253.38 432.49,253.00 437.98,253.00 C447.47,253.00 448.03,252.88 449.57,250.54 C452.76,245.67 449.35,237.97 442.67,234.94 C437.00,232.36 430.45,232.48 425.02,235.25 C419.59,238.02 417.02,241.42 416.30,246.77 C414.82,257.82 419.97,264.88 431.00,266.92 ZM 392.90 264.73 C396.76,267.31 403.92,267.77 408.00,265.71 C409.82,264.78 410.50,263.64 410.50,261.47 C410.50,258.66 410.24,258.47 405.63,257.94 C399.54,257.24 398.00,255.30 398.00,248.31 L 398.00 243.00 L 402.96 243.00 C407.81,243.00 410.00,241.49 410.00,238.14 C410.00,235.82 406.67,234.00 402.43,234.00 C398.05,234.00 398.00,233.96 398.00,230.57 C398.00,226.55 395.84,224.00 392.43,224.00 C388.91,224.00 386.00,227.36 386.00,231.43 C386.00,234.44 385.65,234.91 383.25,235.18 C378.49,235.73 379.30,243.00 384.12,243.00 C385.76,243.00 386.00,243.80 386.00,249.25 C386.00,256.77 388.13,261.54 392.90,264.73 ZM 223.85 256.57 C222.34,257.36 219.28,258.00 217.05,258.00 L 213.00 258.00 L 213.00 231.00 L 217.92 231.00 C220.62,231.00 223.56,231.28 224.46,231.62 C227.18,232.67 229.00,237.59 229.00,243.90 C229.00,251.10 227.56,254.66 223.85,256.57 ZM 361.55 256.55 C358.87,259.22 358.55,259.30 355.32,257.99 C352.51,256.86 351.00,254.00 351.00,249.79 C351.00,244.89 353.41,242.00 357.50,242.00 C363.94,242.00 366.59,251.50 361.55,256.55 ZM 270.53 255.65 C268.76,258.18 266.18,258.98 263.28,257.91 C260.52,256.89 259.00,254.00 259.00,249.79 C259.00,244.89 261.41,242.00 265.50,242.00 C267.87,242.00 269.36,242.67 270.44,244.22 C272.41,247.03 272.45,252.91 270.53,255.65 ZM 440.00 245.07 C440.00,245.58 437.30,246.00 434.00,246.00 C429.40,246.00 428.00,245.66 428.00,244.54 C428.00,242.71 431.07,241.00 434.36,241.00 C436.84,241.00 440.00,243.29 440.00,245.07 Z" fill="rgb(35,62,153)"/>
<path d="M 104.75 257.99 C103.79,258.00 102.12,258.88 101.04,259.96 C99.96,261.04 98.83,261.53 98.53,261.04 C97.82,259.90 102.77,256.00 104.94,256.00 C107.80,256.00 109.95,253.64 110.19,250.25 C110.55,245.31 114.43,245.98 116.33,251.30 C116.85,252.74 115.92,253.60 111.74,255.54 C108.86,256.88 105.71,257.98 104.75,257.99 ZM 125.00 208.08 C125.00,208.59 124.44,208.95 123.75,208.88 C120.51,208.58 119.00,207.71 119.00,206.13 C119.00,205.18 118.46,203.86 117.80,203.20 C116.87,202.27 116.87,202.00 117.80,202.00 C118.46,202.00 119.00,202.47 119.00,203.04 C119.00,203.75 119.60,203.75 120.93,203.04 C122.00,202.47 123.40,202.00 124.06,202.00 C125.93,202.00 123.09,204.98 121.13,205.08 C120.23,205.12 120.74,205.61 122.25,206.16 C123.76,206.71 125.00,207.58 125.00,208.08 ZM 105.25 231.54 C103.74,231.86 101.71,232.28 100.75,232.47 C98.68,232.88 97.28,231.17 99.19,230.57 C99.91,230.34 102.19,229.88 104.25,229.53 C108.61,228.81 109.52,230.64 105.25,231.54 ZM 113.02 253.43 C114.24,250.24 114.24,250.00 113.00,250.00 C112.45,250.00 112.00,250.70 112.00,251.56 C112.00,252.42 111.55,252.84 111.00,252.50 C110.45,252.16 110.00,252.10 110.00,252.36 C110.00,252.62 109.73,253.55 109.39,254.42 C108.99,255.46 109.34,256.00 110.42,256.00 C111.32,256.00 112.49,254.85 113.02,253.43 ZM 141.00 211.92 C141.00,212.41 139.43,212.76 137.50,212.70 C134.02,212.60 133.04,211.71 135.06,210.46 C136.41,209.63 141.00,210.76 141.00,211.92 ZM 130.00 229.24 C130.00,230.39 128.72,230.10 126.57,228.48 C125.51,227.68 124.91,226.76 125.23,226.44 C125.91,225.75 130.00,228.15 130.00,229.24 ZM 89.85 241.68 C88.62,243.16 85.00,243.49 85.00,242.11 C85.00,241.63 86.34,241.03 87.98,240.79 C90.36,240.44 90.73,240.62 89.85,241.68 Z" fill="rgb(119,133,177)"/>
<path d="M 0.00 240.00 L 0.00 0.00 L 240.00 0.00 L 480.00 0.00 L 480.00 240.00 L 480.00 480.00 L 240.00 480.00 L 0.00 480.00 L 0.00 240.00 ZM 121.50 313.49 C127.66,311.84 141.80,305.33 145.96,302.24 C181.12,276.07 188.46,228.74 162.67,194.44 C158.81,189.31 152.11,182.54 146.85,178.46 C138.74,172.18 123.61,166.43 111.57,165.06 C90.61,162.68 71.53,168.43 53.76,182.48 C43.47,190.61 34.02,205.36 29.31,220.65 C26.77,228.90 26.77,251.10 29.31,259.35 C31.97,267.99 38.61,281.00 43.59,287.35 C54.30,300.98 72.71,311.43 93.00,315.37 C97.67,316.28 115.47,315.10 121.50,313.49 ZM 279.49 272.98 C285.31,270.18 285.54,270.15 287.49,271.93 C292.92,276.86 300.38,277.47 306.27,273.46 C308.32,272.07 310.00,270.49 310.00,269.96 C310.00,268.56 311.64,268.79 313.28,270.43 C320.08,277.22 331.75,277.82 336.88,271.65 C337.96,270.35 338.95,270.55 344.67,273.23 C356.12,278.59 368.13,277.09 377.15,269.18 L 380.69 266.07 L 383.49 268.99 C390.20,275.99 402.30,278.08 412.00,273.90 L 416.87 271.81 L 422.69 274.02 C431.39,277.33 440.29,277.11 447.66,273.40 C450.82,271.80 454.31,269.25 455.42,267.73 C459.04,262.73 460.48,242.77 457.63,237.24 C455.32,232.79 448.56,227.42 443.46,225.99 C436.92,224.16 424.17,225.11 419.65,227.78 C417.67,228.94 415.80,229.48 415.49,228.98 C415.17,228.47 413.15,227.53 410.99,226.88 C408.22,226.05 406.31,224.55 404.47,221.77 C401.68,217.56 396.96,215.00 391.99,215.00 C387.15,215.00 381.05,218.63 379.45,222.46 C376.91,228.55 375.75,229.09 370.01,226.91 C363.78,224.54 351.53,224.33 346.35,226.50 C341.00,228.73 340.00,228.46 340.00,224.75 C339.99,215.74 329.58,209.57 320.32,213.06 C318.77,213.65 316.08,215.49 314.34,217.17 C311.22,220.18 311.17,220.19 310.06,218.11 C308.58,215.34 301.91,212.00 297.86,212.00 C290.30,212.00 282.97,218.33 282.78,225.02 C282.68,228.47 282.62,228.48 277.00,226.50 C270.59,224.24 258.93,224.55 252.90,227.14 C250.17,228.31 247.81,229.10 247.64,228.89 C247.48,228.67 246.33,226.81 245.08,224.74 C242.51,220.45 236.37,215.92 230.50,213.95 C228.06,213.14 221.62,212.59 214.00,212.56 C202.30,212.50 201.29,212.65 198.29,214.91 C192.50,219.25 192.00,221.57 192.00,244.17 C192.00,267.36 192.59,269.67 199.60,273.79 C203.20,275.90 204.47,276.05 216.00,275.76 C229.24,275.42 235.54,273.66 240.67,268.84 L 242.85 266.79 L 246.18 269.28 C257.09,277.45 267.72,278.63 279.49,272.98 ZM 87.49 290.64 C69.77,284.90 58.12,273.28 51.87,255.12 C49.30,247.64 49.30,232.36 51.87,224.88 C57.93,207.27 70.07,194.94 86.50,189.71 C114.66,180.74 145.18,197.05 153.47,225.50 C155.77,233.37 155.77,246.63 153.47,254.50 C145.23,282.79 114.76,299.48 87.49,290.64 ZM 105.28 282.38 C119.93,275.01 139.00,260.36 139.00,256.47 C139.00,255.18 139.45,253.84 140.00,253.50 C140.55,253.16 141.00,252.32 141.00,251.63 C141.00,250.95 138.64,252.67 135.75,255.45 C129.59,261.40 120.75,267.69 109.22,274.32 L 100.94 279.09 L 98.02 277.01 C93.46,273.77 83.43,262.21 80.50,256.81 C79.03,254.13 76.74,247.83 75.40,242.81 C74.05,237.79 71.79,231.54 70.36,228.92 C67.65,223.94 61.13,216.94 62.33,220.29 C62.68,221.27 62.44,222.93 61.79,223.96 C60.80,225.56 61.08,226.27 63.66,228.68 C67.85,232.60 69.85,236.75 73.54,249.21 C75.28,255.10 78.24,262.45 80.10,265.53 C83.57,271.25 96.86,285.00 98.93,285.00 C99.55,285.00 102.41,283.82 105.28,282.38 ZM 104.75 257.99 C105.71,257.98 108.86,256.88 111.74,255.54 C115.92,253.60 116.85,252.74 116.33,251.30 C114.43,245.98 110.55,245.31 110.19,250.25 C109.95,253.64 107.80,256.00 104.94,256.00 C102.77,256.00 97.82,259.90 98.53,261.04 C98.83,261.53 99.96,261.04 101.04,259.96 C102.12,258.88 103.79,258.00 104.75,257.99 ZM 89.85 241.68 C90.73,240.62 90.36,240.44 87.98,240.79 C86.34,241.03 85.00,241.63 85.00,242.11 C85.00,243.49 88.62,243.16 89.85,241.68 ZM 138.56 233.39 C138.13,231.66 138.91,229.62 141.43,225.96 C143.34,223.18 144.65,220.26 144.35,219.46 C143.60,217.53 142.59,218.28 139.07,223.40 C135.42,228.70 134.49,232.17 135.97,234.93 C137.42,237.66 139.35,236.52 138.56,233.39 ZM 105.25 231.54 C109.52,230.64 108.61,228.81 104.25,229.53 C102.19,229.88 99.91,230.34 99.19,230.57 C97.28,231.17 98.68,232.88 100.75,232.47 C101.71,232.28 103.74,231.86 105.25,231.54 ZM 130.00 229.24 C130.00,228.15 125.91,225.75 125.23,226.44 C124.91,226.76 125.51,227.68 126.57,228.48 C128.72,230.10 130.00,230.39 130.00,229.24 ZM 141.00 211.92 C141.00,210.76 136.41,209.63 135.06,210.46 C133.04,211.71 134.02,212.60 137.50,212.70 C139.43,212.76 141.00,212.41 141.00,211.92 ZM 125.00 208.08 C125.00,207.58 123.76,206.71 122.25,206.16 C120.74,205.61 120.23,205.12 121.13,205.08 C123.09,204.98 125.93,202.00 124.06,202.00 C123.40,202.00 122.00,202.47 120.93,203.04 C119.60,203.75 119.00,203.75 119.00,203.04 C119.00,202.47 118.46,202.00 117.80,202.00 C116.87,202.00 116.87,202.27 117.80,203.20 C118.46,203.86 119.00,205.18 119.00,206.13 C119.00,207.71 120.51,208.58 123.75,208.88 C124.44,208.95 125.00,208.59 125.00,208.08 ZM 261.22 266.88 C255.48,265.83 251.16,262.57 248.91,257.60 C246.42,252.13 246.53,247.36 249.25,241.98 C252.04,236.48 256.25,233.97 263.83,233.28 C277.03,232.09 285.46,240.78 283.54,253.59 C282.07,263.41 272.69,269.00 261.22,266.88 ZM 270.53 255.65 C272.45,252.91 272.41,247.03 270.44,244.22 C269.36,242.67 267.87,242.00 265.50,242.00 C261.41,242.00 259.00,244.89 259.00,249.79 C259.00,254.00 260.52,256.89 263.28,257.91 C266.18,258.98 268.76,258.18 270.53,255.65 ZM 353.00 266.81 C348.06,265.94 344.71,263.84 341.57,259.62 C338.63,255.68 338.62,244.36 341.56,240.33 C344.59,236.16 351.47,233.00 357.50,233.00 C369.07,233.00 376.67,240.95 375.62,251.94 C374.57,262.98 365.42,268.99 353.00,266.81 ZM 361.55 256.55 C366.59,251.50 363.94,242.00 357.50,242.00 C353.41,242.00 351.00,244.89 351.00,249.79 C351.00,254.00 352.51,256.86 355.32,257.99 C358.55,259.30 358.87,259.22 361.55,256.55 ZM 431.00 266.92 C419.97,264.88 414.82,257.82 416.30,246.77 C417.02,241.42 419.59,238.02 425.02,235.25 C430.45,232.48 437.00,232.36 442.67,234.94 C449.35,237.97 452.76,245.67 449.57,250.54 C448.03,252.88 447.47,253.00 437.98,253.00 C432.49,253.00 428.00,253.38 428.00,253.85 C428.00,254.31 428.82,255.43 429.83,256.35 C431.96,258.28 436.69,258.47 442.10,256.85 C446.55,255.52 449.30,256.95 448.80,260.31 C448.11,264.89 438.77,268.36 431.00,266.92 ZM 440.00 245.07 C440.00,243.29 436.84,241.00 434.36,241.00 C431.07,241.00 428.00,242.71 428.00,244.54 C428.00,245.66 429.40,246.00 434.00,246.00 C437.30,246.00 440.00,245.58 440.00,245.07 ZM 202.65 265.17 C201.23,263.60 201.00,260.58 201.00,243.79 C201.00,226.76 201.21,224.07 202.67,222.87 C204.77,221.14 222.28,221.26 228.66,223.04 C236.65,225.28 240.99,232.66 240.99,244.00 C240.99,251.97 239.28,256.96 235.12,261.12 C230.50,265.73 225.97,266.99 213.90,266.99 C205.87,267.00 204.04,266.70 202.65,265.17 ZM 223.85 256.57 C227.56,254.66 229.00,251.10 229.00,243.90 C229.00,237.59 227.18,232.67 224.46,231.62 C223.56,231.28 220.62,231.00 217.92,231.00 L 213.00 231.00 L 213.00 244.50 L 213.00 258.00 L 217.05 258.00 C219.28,258.00 222.34,257.36 223.85,256.57 ZM 293.20 265.80 C292.34,264.94 292.00,258.64 292.00,243.78 L 292.00 222.96 L 294.54 221.80 C299.20,219.68 301.78,221.69 310.42,234.22 C314.86,240.66 318.84,245.95 319.25,245.97 C319.66,245.99 320.00,240.84 320.00,234.54 C320.00,224.22 320.19,222.97 321.93,222.04 C324.53,220.65 328.33,220.73 329.80,222.20 C330.66,223.06 331.00,229.33 331.00,244.08 C331.00,266.94 330.88,267.40 324.82,266.82 C321.84,266.53 320.64,265.29 313.00,254.52 L 304.50 242.55 L 303.83 253.32 C303.46,259.25 302.62,264.75 301.96,265.55 C300.50,267.30 294.87,267.47 293.20,265.80 ZM 392.90 264.73 C388.13,261.54 386.00,256.77 386.00,249.25 C386.00,243.80 385.76,243.00 384.12,243.00 C379.30,243.00 378.49,235.73 383.25,235.18 C385.65,234.91 386.00,234.44 386.00,231.43 C386.00,227.36 388.91,224.00 392.43,224.00 C395.84,224.00 398.00,226.55 398.00,230.57 C398.00,233.96 398.05,234.00 402.43,234.00 C406.67,234.00 410.00,235.82 410.00,238.14 C410.00,241.49 407.81,243.00 402.96,243.00 L 398.00 243.00 L 398.00 248.31 C398.00,255.30 399.54,257.24 405.63,257.94 C410.24,258.47 410.50,258.66 410.50,261.47 C410.50,263.64 409.82,264.78 408.00,265.71 C403.92,267.77 396.76,267.31 392.90,264.73 Z" fill="rgb(254,254,254)"/>
</g>
</svg>