<?xml version="1.0" standalone="no"?>
<!DOCTYPE svg PUBLIC "-//W3C//DTD SVG 20010904//EN"
 "http://www.w3.org/TR/2001/REC-SVG-20010904/DTD/svg10.dtd">
<svg version="1.0" xmlns="http://www.w3.org/2000/svg"
 width="500.000000pt" height="500.000000pt" viewBox="0 0 500.000000 500.000000"
 preserveAspectRatio="xMidYMid meet">

<g transform="translate(0.000000,500.000000) scale(0.100000,-0.100000)"
fill="#000000" stroke="none">
<path d="M5 4988 c-3 -7 -4 -1131 -3 -2498 l3 -2485 2495 0 2495 0 0 2495 0
2495 -2493 3 c-1989 2 -2494 0 -2497 -10z m988 -1705 c-7 -2 -19 -2 -25 0 -7
3 -2 5 12 5 14 0 19 -2 13 -5z m-433 -176 c0 -1 -24 -25 -52 -52 l-53 -50 50
53 c46 48 55 57 55 49z m1031 -14 c13 -16 12 -17 -3 -4 -17 13 -22 21 -14 21
2 0 10 -8 17 -17z m65 -65 l29 -33 -32 29 c-18 17 -33 31 -33 33 0 8 8 1 36
-29z m-453 6 c138 -35 265 -131 337 -253 54 -92 73 -166 74 -281 0 -117 -26
-208 -84 -297 -160 -244 -465 -322 -730 -188 -68 34 -176 141 -217 215 -91
164 -90 379 3 545 38 67 146 173 214 210 117 63 276 82 403 49z m2200 -241
c-7 -2 -19 -2 -25 0 -7 3 -2 5 12 5 14 0 19 -2 13 -5z m102 -43 c10 -11 16
-20 13 -20 -3 0 -13 9 -23 20 -10 11 -16 20 -13 20 3 0 13 -9 23 -20z m-284
-7 c13 -16 12 -17 -3 -4 -17 13 -22 21 -14 21 2 0 10 -8 17 -17z m49 -7 c0 -2
-8 -10 -17 -17 -16 -13 -17 -12 -4 4 13 16 21 21 21 13z m930 -21 c13 -14 21
-25 18 -25 -2 0 -15 11 -28 25 -13 14 -21 25 -18 25 2 0 15 -11 28 -25z
m-2177 0 c-3 -9 -8 -14 -10 -11 -3 3 -2 9 2 15 9 16 15 13 8 -4z m502 -15 c10
-11 16 -20 13 -20 -3 0 -13 9 -23 20 -10 11 -16 20 -13 20 3 0 13 -9 23 -20z
m-134 -27 c88 -39 125 -114 117 -238 -6 -94 -34 -146 -95 -182 -44 -26 -58
-28 -169 -31 -163 -5 -154 -19 -154 240 0 252 -6 243 149 236 76 -4 120 -11
152 -25z m744 13 c11 -7 58 -68 105 -135 l85 -122 5 126 c5 132 10 145 55 145
11 0 31 -7 43 -16 22 -15 22 -19 22 -228 0 -151 -3 -215 -12 -224 -7 -7 -28
-12 -48 -12 -44 0 -52 8 -151 153 l-74 109 -5 -121 c-5 -125 -10 -138 -50
-142 -31 -3 -45 3 -62 23 -16 18 -18 44 -18 219 0 186 1 200 20 219 23 23 57
26 85 6z m-337 -23 c-15 -2 -42 -2 -60 0 -18 2 -6 4 27 4 33 0 48 -2 33 -4z
m960 0 c-15 -2 -42 -2 -60 0 -18 2 -6 4 27 4 33 0 48 -2 33 -4z m360 -9 c13
-9 24 -30 28 -55 6 -38 8 -39 48 -39 60 0 82 -22 65 -67 -7 -20 -16 -23 -59
-23 l-50 0 0 -63 c0 -36 5 -68 12 -75 7 -7 31 -12 54 -12 47 0 67 -17 62 -52
-4 -30 -42 -48 -101 -48 -109 0 -156 54 -157 183 0 65 -1 67 -25 67 -53 0 -57
76 -4 87 25 5 29 10 29 39 0 37 29 74 58 74 10 0 28 -7 40 -16z m430 9 c-15
-2 -42 -2 -60 0 -18 2 -6 4 27 4 33 0 48 -2 33 -4z m-988 -35 c0 -5 -4 -8 -10
-8 -5 0 -10 10 -10 23 0 18 2 19 10 7 5 -8 10 -18 10 -22z m-1713 -10 c-3 -8
-6 -5 -6 6 -1 11 2 17 5 13 3 -3 4 -12 1 -19z m747 0 c-3 -4 -9 -8 -15 -8 -5
0 -9 4 -9 8 0 5 7 9 15 9 8 0 12 -4 9 -9z m2126 -23 c13 -14 21 -25 18 -25 -2
0 -15 11 -28 25 -13 14 -21 25 -18 25 2 0 15 -11 28 -25z m-1850 -47 c58 -30
83 -79 83 -159 -1 -73 -24 -116 -81 -147 -74 -41 -207 -28 -254 25 -75 82 -55
229 37 280 56 32 154 32 215 1z m956 1 c114 -55 113 -254 -1 -309 -50 -24
-132 -29 -187 -11 -141 46 -147 266 -10 328 45 20 150 16 198 -8z m777 7 c50
-21 79 -59 84 -110 8 -70 -1 -76 -123 -76 -85 0 -104 -3 -104 -15 0 -26 46
-48 87 -41 102 18 109 18 123 2 20 -25 -2 -64 -46 -82 -46 -19 -149 -20 -194
0 -66 27 -100 82 -100 161 0 76 34 134 95 161 39 17 137 18 178 0z m184 -158
c-3 -8 -6 -5 -6 6 -1 11 2 17 5 13 3 -3 4 -12 1 -19z m-2940 -30 c-3 -8 -6 -5
-6 6 -1 11 2 17 5 13 3 -3 4 -12 1 -19z m2134 -155 c13 -16 12 -17 -4 -4 -16
12 -21 11 -50 -15 l-32 -29 29 33 c34 37 39 38 57 15z m-1430 -10 c13 -16 12
-17 -3 -4 -10 7 -18 15 -18 17 0 8 8 3 21 -13z m720 -30 l24 -28 -28 24 -27
25 -33 -30 -32 -29 29 33 c17 17 33 32 36 32 4 0 17 -12 31 -27z m-1226 -3
c10 -11 16 -20 13 -20 -3 0 -13 9 -23 20 -10 11 -16 20 -13 20 3 0 13 -9 23
-20z m940 0 c10 -11 16 -20 13 -20 -3 0 -13 9 -23 20 -10 11 -16 20 -13 20 3
0 13 -9 23 -20z m-717 -47 c-26 -2 -71 -2 -100 0 -29 2 -8 3 47 3 55 0 79 -1
53 -3z m459 1 c-3 -3 -12 -4 -19 -1 -8 3 -5 6 6 6 11 1 17 -2 13 -5z m100 0
c-3 -3 -12 -4 -19 -1 -8 3 -5 6 6 6 11 1 17 -2 13 -5z m960 0 c-3 -3 -12 -4
-19 -1 -8 3 -5 6 6 6 11 1 17 -2 13 -5z m411 -1 c-16 -2 -40 -2 -55 0 -16 2
-3 4 27 4 30 0 43 -2 28 -4z m289 1 c-3 -3 -12 -4 -19 -1 -8 3 -5 6 6 6 11 1
17 -2 13 -5z m100 0 c-3 -3 -12 -4 -19 -1 -8 3 -5 6 6 6 11 1 17 -2 13 -5z
m-2907 -127 c0 -2 -12 -14 -27 -28 l-28 -24 24 28 c23 25 31 32 31 24z m-1190
-32 c13 -14 21 -25 18 -25 -2 0 -15 11 -28 25 -13 14 -21 25 -18 25 2 0 15
-11 28 -25z m55 -55 c10 -11 16 -20 13 -20 -3 0 -13 9 -23 20 -10 11 -16 20
-13 20 3 0 13 -9 23 -20z m1055 6 c0 -2 -8 -10 -17 -17 -16 -13 -17 -12 -4 4
13 16 21 21 21 13z m-607 -203 c-7 -2 -19 -2 -25 0 -7 3 -2 5 12 5 14 0 19 -2
13 -5z m174 1 c-3 -3 -12 -4 -19 -1 -8 3 -5 6 6 6 11 1 17 -2 13 -5z"/>
<path d="M919 2896 c-161 -88 -271 -155 -281 -169 -4 -6 -2 -17 3 -23 7 -9 6
-19 -2 -32 -11 -18 -8 -26 30 -67 49 -53 71 -100 96 -205 10 -41 32 -102 49
-135 30 -57 160 -206 199 -226 14 -8 35 -1 95 31 157 85 348 230 338 257 -3 8
2 25 11 39 16 25 16 26 -28 64 -24 21 -46 36 -49 33 -5 -5 37 -44 67 -63 16
-9 11 -17 -42 -65 -67 -62 -186 -144 -288 -200 -83 -46 -89 -44 -183 58 -84
91 -118 153 -150 273 -29 111 -65 184 -106 219 -15 13 -28 28 -28 34 0 12 129
89 298 178 l123 65 37 -25 c46 -30 96 -118 116 -206 16 -67 33 -101 21 -41
-14 69 -54 172 -80 206 -27 35 -80 74 -100 74 -6 0 -71 -33 -146 -74z"/>
<path d="M1235 2909 c-11 -17 1 -21 15 -4 8 9 8 15 2 15 -6 0 -14 -5 -17 -11z"/>
<path d="M1254 2874 c-18 -14 -18 -14 6 -3 31 14 36 19 24 19 -6 0 -19 -7 -30
-16z"/>
<path d="M1260 2840 c8 -5 22 -9 30 -9 10 0 8 3 -5 9 -27 12 -43 12 -25 0z"/>
<path d="M1408 2802 c-16 -7 -87 -98 -111 -145 -25 -47 -112 -182 -119 -185
-5 -2 -8 -10 -8 -17 0 -7 -6 -26 -14 -42 -8 -15 -19 -40 -24 -54 -7 -18 -20
-28 -41 -32 -32 -7 -71 -44 -83 -80 -7 -21 -7 -21 5 -2 26 42 64 72 100 79 41
8 107 43 107 57 0 5 6 9 13 9 6 1 21 14 32 30 36 52 135 179 143 184 5 3 7 -8
4 -23 -4 -31 13 -50 30 -33 8 8 8 15 0 25 -9 11 -4 24 23 63 25 34 35 60 35
85 0 57 -48 98 -92 81z m72 -42 c6 -11 8 -26 3 -33 -14 -23 -95 -132 -102
-137 -4 -3 -18 -21 -31 -40 -59 -86 -94 -120 -115 -114 -18 6 -18 5 -6 -10 23
-27 8 -27 -24 0 -20 17 -26 27 -17 30 6 3 12 10 12 16 0 13 85 144 100 153 6
4 17 2 23 -4 6 -6 16 -11 22 -11 5 0 -1 9 -15 19 l-24 19 37 54 c54 76 60 84
77 90 20 7 47 -8 60 -32z m-272 -368 c2 -12 -1 -22 -7 -22 -6 0 -11 7 -11 15
0 22 -18 18 -25 -6 -4 -11 -9 -19 -11 -16 -3 2 0 16 6 31 12 33 43 32 48 -2z"/>
<path d="M923 2594 c-3 -9 0 -32 7 -52 11 -31 11 -37 -5 -48 -10 -8 -22 -11
-26 -8 -5 3 -9 0 -9 -5 0 -15 12 -14 38 5 13 9 29 13 37 10 8 -3 15 -1 15 4 0
6 -5 10 -11 10 -7 0 -8 11 -4 30 4 16 4 39 0 50 -8 24 -33 26 -42 4z m32 -41
c-7 -27 -7 -28 -17 -6 -13 27 -2 61 14 45 6 -6 8 -22 3 -39z"/>
<path d="M1071 2601 c-19 -3 -37 -13 -41 -21 -4 -8 -14 -30 -23 -48 -12 -23
-13 -32 -5 -30 7 3 18 22 24 44 9 34 15 40 48 45 20 3 39 9 43 12 7 8 5 7 -46
-2z"/>
<path d="M2220 2461 c0 -139 0 -139 24 -145 36 -9 96 15 120 47 16 22 21 43
21 90 -1 103 -40 147 -131 147 l-34 0 0 -139z"/>
<path d="M2720 2460 c-14 -14 -20 -33 -20 -63 0 -55 22 -87 61 -87 44 0 69 31
69 85 0 52 -25 85 -65 85 -14 0 -34 -9 -45 -20z"/>
<path d="M3674 2459 c-12 -14 -19 -36 -19 -64 0 -80 70 -115 115 -57 41 51 9
142 -50 142 -15 0 -35 -9 -46 -21z"/>
<path d="M4468 2468 l-23 -23 64 -3 c35 -2 66 -1 69 2 3 3 -3 15 -13 26 -24
27 -69 26 -97 -2z"/>
</g>
</svg>
