<svg xmlns="http://www.w3.org/2000/svg" width="500" height="500" viewBox="0 0 500 500">
<g>
<path d="M 254.91 346.84 C248.53,350.23 242.80,353.00 242.17,353.00 C240.04,353.00 220.43,335.23 212.95,326.51 C197.30,308.30 189.49,294.13 185.37,276.50 C178.27,246.12 174.19,237.18 161.76,224.74 C156.94,219.93 153.00,215.54 153.00,215.01 C153.00,214.47 154.82,212.88 157.04,211.48 L 161.07 208.93 L 158.04 206.38 C154.61,203.49 154.18,201.00 156.75,198.83 C162.63,193.87 211.59,166.20 236.84,153.57 L 250.18 146.90 L 255.34 148.61 C266.47,152.29 278.43,168.49 284.42,188.00 C288.12,200.07 290.97,213.90 289.89,214.57 C288.79,215.25 288.56,214.60 286.43,204.50 C282.46,185.75 275.42,169.17 267.74,160.44 C263.33,155.43 254.78,150.02 251.23,150.01 C244.65,149.98 157.99,198.26 158.00,201.95 C158.01,202.80 160.41,205.36 163.35,207.62 C174.19,215.99 182.48,232.08 187.47,254.40 C191.88,274.17 195.24,282.24 205.25,297.21 C211.96,307.25 227.26,323.72 238.15,332.63 L 245.14 338.35 L 250.82 335.60 C265.63,328.43 291.47,312.80 305.57,302.47 C319.84,292.03 337.00,276.67 337.00,274.34 C337.00,273.67 334.41,271.11 331.25,268.65 C323.95,262.99 317.42,256.25 318.34,255.33 C318.73,254.94 321.17,256.65 323.77,259.13 C326.37,261.61 330.86,265.57 333.75,267.92 C340.04,273.03 340.32,275.06 335.45,280.05 C332.33,283.24 332.09,283.83 333.45,284.96 C336.25,287.28 335.09,289.66 327.75,296.63 C309.70,313.77 284.58,331.09 254.91,346.84 ZM 240.51 304.32 C239.53,306.90 238.34,309.00 237.86,309.00 C234.95,309.00 240.57,297.51 245.79,292.80 C248.11,290.71 251.76,288.63 254.19,288.02 C263.69,285.62 265.38,284.64 266.32,280.97 C266.81,279.06 267.43,275.32 267.71,272.66 C268.14,268.44 268.57,267.70 271.06,266.83 C273.56,265.96 273.84,265.46 273.32,262.86 C272.87,260.58 273.30,259.27 275.19,257.20 C276.55,255.71 279.97,250.36 282.80,245.31 C285.63,240.25 290.88,232.10 294.47,227.19 C298.06,222.28 301.00,217.64 301.00,216.88 C301.00,214.37 320.41,186.74 323.50,184.84 C331.99,179.64 345.00,186.41 345.00,196.03 C345.00,198.16 345.50,201.00 346.10,202.33 C347.58,205.56 345.10,210.74 336.53,222.35 C329.68,231.64 328.74,234.00 331.93,234.00 C334.84,234.00 335.63,237.81 333.23,240.22 C330.71,242.74 327.84,241.45 325.98,236.95 C324.84,234.19 324.94,233.31 326.83,229.41 C328.01,226.99 328.74,225.00 328.45,225.00 C327.27,225.00 319.43,234.01 313.66,242.00 C310.28,246.68 304.02,254.39 299.76,259.15 C295.49,263.90 292.00,268.48 292.00,269.32 C292.00,271.93 289.09,274.06 286.43,273.39 C284.25,272.85 284.00,273.10 284.00,275.86 C284.00,278.60 283.45,279.18 279.03,281.08 C276.30,282.26 273.54,283.84 272.91,284.61 C272.27,285.37 270.66,286.00 269.33,286.00 C267.99,286.00 265.69,286.61 264.20,287.37 C262.72,288.12 259.06,289.30 256.08,290.01 C249.46,291.56 243.18,297.33 240.51,304.32 ZM 281.11 266.50 C287.66,271.32 288.48,271.64 289.61,269.83 C290.04,269.12 288.77,267.33 286.42,265.34 C282.16,261.74 283.82,260.50 288.24,263.98 L 290.76 265.95 L 297.70 258.23 C306.54,248.39 318.00,232.74 318.00,230.50 C318.00,229.41 318.53,228.99 319.46,229.35 C320.47,229.73 323.67,226.12 329.78,217.70 C342.80,199.77 343.00,199.46 343.00,196.17 C343.00,192.11 338.80,187.32 333.98,185.88 C327.88,184.05 325.18,185.78 317.71,196.33 C314.13,201.37 309.37,208.04 307.12,211.15 L 303.04 216.79 L 308.55 220.95 C315.37,226.10 314.80,228.29 307.92,223.35 C305.17,221.37 302.68,219.99 302.39,220.27 C299.33,223.34 286.18,243.38 282.82,250.11 C280.44,254.87 277.71,259.00 276.75,259.29 C273.77,260.18 274.77,261.84 281.11,266.50 ZM 218.40 254.61 C214.88,256.08 214.26,256.15 212.25,255.34 C209.82,254.36 211.04,253.00 214.35,253.00 C216.53,253.00 218.64,252.14 220.35,250.55 C223.56,247.58 223.59,247.11 220.82,242.42 C218.29,238.13 217.78,230.18 219.87,227.66 C220.63,226.74 222.55,226.00 224.15,226.00 C226.34,226.00 227.29,226.62 228.02,228.57 C229.41,232.20 229.23,237.09 227.55,241.85 C226.17,245.76 226.21,246.03 228.27,247.48 C233.51,251.15 238.04,247.54 239.87,238.24 C241.36,230.69 242.89,229.01 248.32,228.96 C252.02,228.92 255.32,228.04 261.25,225.53 C262.34,225.07 263.00,225.23 263.00,225.94 C263.00,227.83 254.86,230.95 249.87,230.98 C244.31,231.00 243.32,232.02 241.99,239.10 C240.21,248.62 235.30,252.60 228.40,250.10 C225.09,248.90 224.71,248.97 223.28,251.01 C222.43,252.22 220.24,253.84 218.40,254.61 ZM 267.69 280.25 C267.34,281.21 267.45,282.00 267.92,282.00 C269.18,282.00 272.27,276.93 272.40,274.67 C272.55,271.70 275.59,270.17 277.52,272.09 C279.35,273.92 278.58,276.68 276.00,277.50 C274.38,278.01 272.31,281.00 273.57,281.00 C273.85,281.00 275.86,280.09 278.04,278.98 C281.50,277.21 282.00,276.52 282.00,273.50 C282.00,268.76 278.73,266.52 274.27,268.20 C271.83,269.13 271.01,270.15 270.49,272.94 C270.12,274.90 269.48,276.95 269.07,277.50 C268.65,278.05 268.03,279.29 267.69,280.25 ZM 223.00 241.50 C224.72,243.57 225.56,242.24 226.47,236.00 C227.24,230.73 225.44,227.24 222.52,228.35 C221.05,228.92 220.83,229.94 221.20,234.46 C221.45,237.44 222.26,240.61 223.00,241.50 ZM 298.22 166.84 C291.91,170.13 289.14,171.04 288.52,170.04 C288.22,169.55 290.55,167.98 293.69,166.54 C300.63,163.36 304.41,163.61 298.22,166.84 ZM 302.45 176.07 C303.04,176.65 301.71,176.96 298.95,176.88 C293.54,176.74 290.82,176.14 289.50,174.78 C288.21,173.46 301.09,174.74 302.45,176.07 ZM 292.96 157.75 C292.94,158.16 291.43,160.25 289.60,162.38 C285.42,167.27 284.02,165.65 288.12,160.67 C290.93,157.26 293.05,155.98 292.96,157.75 Z" fill="rgb(13,13,13)"/>
<path d="M 267.79 422.93 C258.65,423.94 243.20,424.14 236.50,423.34 C209.78,420.17 192.32,415.19 171.74,404.89 C117.77,377.87 80.63,322.08 77.13,262.78 C75.20,230.04 80.34,202.64 93.60,175.01 C110.80,139.16 139.24,110.75 175.16,93.53 C202.95,80.21 230.38,75.12 263.56,77.12 C338.42,81.64 402.60,137.09 419.59,211.95 C432.35,268.13 415.75,328.19 376.11,369.29 C370.27,375.34 362.52,382.66 358.89,385.57 C332.78,406.46 301.71,419.21 267.79,422.93 ZM 236.29 370.97 C257.83,373.69 283.36,369.24 303.84,359.20 C362.00,330.68 387.61,260.52 361.52,201.18 C349.05,172.82 326.16,150.11 297.96,138.12 C282.82,131.69 273.97,129.86 255.14,129.27 C231.44,128.53 216.03,131.53 197.55,140.50 C183.47,147.32 176.43,152.46 164.00,164.95 C147.53,181.51 138.62,196.76 132.45,219.00 C130.28,226.82 129.72,231.38 129.28,244.79 C128.53,267.52 131.40,283.18 139.57,300.87 C150.32,324.12 172.21,346.95 194.69,358.34 C206.37,364.26 222.91,369.28 236.29,370.97 Z" fill="rgb(33,62,153)"/>
<path d="M 267.69 280.25 C268.03,279.29 268.65,278.05 269.07,277.50 C269.43,277.02 269.96,275.41 270.33,273.72 C269.99,275.34 269.57,277.05 269.30,277.82 C268.78,279.33 268.91,279.32 270.60,277.73 C271.39,276.98 272.07,275.92 272.35,275.06 C271.95,277.46 269.11,282.00 267.92,282.00 C267.45,282.00 267.34,281.21 267.69,280.25 ZM 273.60 279.59 C273.16,280.76 273.18,281.16 274.44,280.69 C273.98,280.89 273.67,281.00 273.57,281.00 C272.98,281.00 273.12,280.34 273.60,279.59 ZM 272.55 273.74 C272.76,272.67 273.50,271.86 274.41,271.49 C273.56,271.87 272.85,272.67 272.55,273.74 ZM 271.63 269.91 C272.21,269.17 273.03,268.67 274.27,268.20 C273.04,268.67 272.21,269.17 271.63,269.91 Z" fill="rgb(91,95,110)"/>
<path d="M 0.00 250.00 L 0.00 0.00 L 250.00 0.00 L 500.00 0.00 L 500.00 250.00 L 500.00 500.00 L 250.00 500.00 L 0.00 500.00 L 0.00 250.00 ZM 267.79 422.93 C301.71,419.21 332.78,406.46 358.89,385.57 C362.52,382.66 370.27,375.34 376.11,369.29 C415.75,328.19 432.35,268.13 419.59,211.95 C402.60,137.09 338.42,81.64 263.56,77.12 C230.38,75.12 202.95,80.21 175.16,93.53 C139.24,110.75 110.80,139.16 93.60,175.01 C80.34,202.64 75.20,230.04 77.13,262.78 C80.63,322.08 117.77,377.87 171.74,404.89 C192.32,415.19 209.78,420.17 236.50,423.34 C243.20,424.14 258.65,423.94 267.79,422.93 ZM 236.29 370.97 C222.91,369.28 206.37,364.26 194.69,358.34 C172.21,346.95 150.32,324.12 139.57,300.87 C131.40,283.18 128.53,267.52 129.28,244.79 C129.72,231.38 130.28,226.82 132.45,219.00 C138.62,196.76 147.53,181.51 164.00,164.95 C176.43,152.46 183.47,147.32 197.55,140.50 C216.03,131.53 231.44,128.53 255.14,129.27 C273.97,129.86 282.82,131.69 297.96,138.12 C326.16,150.11 349.05,172.82 361.52,201.18 C387.61,260.52 362.00,330.68 303.84,359.20 C283.36,369.24 257.83,373.69 236.29,370.97 ZM 254.91 346.84 C284.58,331.09 309.70,313.77 327.75,296.63 C335.09,289.66 336.25,287.28 333.45,284.96 C332.09,283.83 332.33,283.24 335.45,280.05 C340.32,275.06 340.04,273.03 333.75,267.92 C330.86,265.57 326.37,261.61 323.77,259.13 C321.17,256.65 318.73,254.94 318.34,255.33 C317.42,256.25 323.95,262.99 331.25,268.65 C334.41,271.11 337.00,273.67 337.00,274.34 C337.00,276.67 319.84,292.03 305.57,302.47 C291.47,312.80 265.63,328.43 250.82,335.60 L 245.14 338.35 L 238.15 332.63 C227.26,323.72 211.96,307.25 205.25,297.21 C195.24,282.24 191.88,274.17 187.47,254.40 C182.48,232.08 174.19,215.99 163.35,207.62 C160.41,205.36 158.01,202.80 158.00,201.95 C157.99,198.26 244.65,149.98 251.23,150.01 C254.78,150.02 263.33,155.43 267.74,160.44 C275.42,169.17 282.46,185.75 286.43,204.50 C288.56,214.60 288.79,215.25 289.89,214.57 C290.97,213.90 288.12,200.07 284.42,188.00 C278.43,168.49 266.47,152.29 255.34,148.61 L 250.18 146.90 L 236.84 153.57 C211.59,166.20 162.63,193.87 156.75,198.83 C154.18,201.00 154.61,203.49 158.04,206.38 L 161.07 208.93 L 157.04 211.48 C154.82,212.88 153.00,214.47 153.00,215.01 C153.00,215.54 156.94,219.93 161.76,224.74 C174.19,237.18 178.27,246.12 185.37,276.50 C189.49,294.13 197.30,308.30 212.95,326.51 C220.43,335.23 240.04,353.00 242.17,353.00 C242.80,353.00 248.53,350.23 254.91,346.84 ZM 240.51 304.32 C243.18,297.33 249.46,291.56 256.08,290.01 C259.06,289.30 262.72,288.12 264.20,287.37 C265.69,286.61 267.99,286.00 269.33,286.00 C270.66,286.00 272.27,285.37 272.91,284.61 C273.54,283.84 276.30,282.26 279.03,281.08 C283.45,279.18 284.00,278.60 284.00,275.86 C284.00,273.10 284.25,272.85 286.43,273.39 C289.09,274.06 292.00,271.93 292.00,269.32 C292.00,268.48 295.49,263.90 299.76,259.15 C304.02,254.39 310.28,246.68 313.66,242.00 C319.43,234.01 327.27,225.00 328.45,225.00 C328.74,225.00 328.01,226.99 326.83,229.41 C324.94,233.31 324.84,234.19 325.98,236.95 C327.84,241.45 330.71,242.74 333.23,240.22 C335.63,237.81 334.84,234.00 331.93,234.00 C328.74,234.00 329.68,231.64 336.53,222.35 C345.10,210.74 347.58,205.56 346.10,202.33 C345.50,201.00 345.00,198.16 345.00,196.03 C345.00,186.41 331.99,179.64 323.50,184.84 C320.41,186.74 301.00,214.37 301.00,216.88 C301.00,217.64 298.06,222.28 294.47,227.19 C290.88,232.10 285.63,240.25 282.80,245.31 C279.97,250.36 276.55,255.71 275.19,257.20 C273.30,259.27 272.87,260.58 273.32,262.86 C273.84,265.46 273.56,265.96 271.06,266.83 C268.57,267.70 268.14,268.44 267.71,272.66 C267.43,275.32 266.81,279.06 266.32,280.97 C265.38,284.64 263.69,285.62 254.19,288.02 C251.76,288.63 248.11,290.71 245.79,292.80 C240.57,297.51 234.95,309.00 237.86,309.00 C238.34,309.00 239.53,306.90 240.51,304.32 ZM 218.40 254.61 C220.24,253.84 222.43,252.22 223.28,251.01 C224.71,248.97 225.09,248.90 228.40,250.10 C235.30,252.60 240.21,248.62 241.99,239.10 C243.32,232.02 244.31,231.00 249.87,230.98 C254.86,230.95 263.00,227.83 263.00,225.94 C263.00,225.23 262.34,225.07 261.25,225.53 C255.32,228.04 252.02,228.92 248.32,228.96 C242.89,229.01 241.36,230.69 239.87,238.24 C238.04,247.54 233.51,251.15 228.27,247.48 C226.21,246.03 226.17,245.76 227.55,241.85 C229.23,237.09 229.41,232.20 228.02,228.57 C227.29,226.62 226.34,226.00 224.15,226.00 C222.55,226.00 220.63,226.74 219.87,227.66 C217.78,230.18 218.29,238.13 220.82,242.42 C223.59,247.11 223.56,247.58 220.35,250.55 C218.64,252.14 216.53,253.00 214.35,253.00 C211.04,253.00 209.82,254.36 212.25,255.34 C214.26,256.15 214.88,256.08 218.40,254.61 ZM 302.45 176.07 C301.09,174.74 288.21,173.46 289.50,174.78 C290.82,176.14 293.54,176.74 298.95,176.88 C301.71,176.96 303.04,176.65 302.45,176.07 ZM 298.22 166.84 C304.41,163.61 300.63,163.36 293.69,166.54 C290.55,167.98 288.22,169.55 288.52,170.04 C289.14,171.04 291.91,170.13 298.22,166.84 ZM 292.96 157.75 C293.05,155.98 290.93,157.26 288.12,160.67 C284.02,165.65 285.42,167.27 289.60,162.38 C291.43,160.25 292.94,158.16 292.96,157.75 ZM 273.62 279.54 C273.93,278.73 275.00,277.82 276.00,277.50 C278.58,276.68 279.35,273.92 277.52,272.09 C275.68,270.25 272.51,271.67 272.49,274.34 C272.48,275.22 271.63,276.75 270.60,277.73 C268.91,279.32 268.78,279.33 269.30,277.82 C269.62,276.90 270.17,274.62 270.52,272.76 C271.00,270.17 271.88,269.11 274.27,268.20 C278.73,266.52 282.00,268.76 282.00,273.50 C282.00,276.52 281.50,277.21 278.04,278.98 C273.32,281.39 272.89,281.44 273.62,279.54 ZM 281.11 266.50 C274.77,261.84 273.77,260.18 276.75,259.29 C277.71,259.00 280.44,254.87 282.82,250.11 C286.18,243.38 299.33,223.34 302.39,220.27 C302.68,219.99 305.17,221.37 307.92,223.35 C314.80,228.29 315.37,226.10 308.55,220.95 L 303.04 216.79 L 307.12 211.15 C309.37,208.04 314.13,201.37 317.71,196.33 C325.18,185.78 327.88,184.05 333.98,185.88 C338.80,187.32 343.00,192.11 343.00,196.17 C343.00,199.46 342.80,199.77 329.78,217.70 C323.67,226.12 320.47,229.73 319.46,229.35 C318.53,228.99 318.00,229.41 318.00,230.50 C318.00,232.74 306.54,248.39 297.70,258.23 L 290.76 265.95 L 288.24 263.98 C283.82,260.50 282.16,261.74 286.42,265.34 C288.77,267.33 290.04,269.12 289.61,269.83 C288.48,271.64 287.66,271.32 281.11,266.50 ZM 223.00 241.50 C222.26,240.61 221.45,237.44 221.20,234.46 C220.83,229.94 221.05,228.92 222.52,228.35 C225.44,227.24 227.24,230.73 226.47,236.00 C225.56,242.24 224.72,243.57 223.00,241.50 Z" fill="rgb(254,254,254)"/>
</g>
</svg>